#N canvas 160 159 697 378 10;
#X obj 463 -60 table \$0-x;
#X obj 271 186 soundfiler;
#X obj 316 56 i \$0;
#X obj 316 95 makefilename %d-x;
#X obj 316 -19 inlet;
#X obj 271 123 pack s s;
#X msg 271 161 read -resize \$1 \$2;
#X obj 465 26 inlet;
#X obj 464 151 outlet~;
#X obj 465 90 tabplay~ \$0-x;
#X symbolatom -79 40 80 0 0 0 - - -;
#X obj -79 -44 inlet;
#X obj 316 10 t b;
#X obj -79 13 makefilename /Users/MAMBA/Desktop/sw/audios/audio%d.aiff
;
#X obj 9 -24 + 1;
#X connect 2 0 3 0;
#X connect 3 0 5 1;
#X connect 4 0 12 0;
#X connect 5 0 6 0;
#X connect 6 0 1 0;
#X connect 7 0 9 0;
#X connect 9 0 8 0;
#X connect 10 0 5 0;
#X connect 11 0 14 0;
#X connect 12 0 2 0;
#X connect 13 0 10 0;
#X connect 14 0 13 0;
