#N canvas 322 249 480 279 10;
#X obj 346 165 cnv 15 100 60 empty empty empty 20 12 0 14 -203904 -66577
0;
#N canvas 493 171 495 378 gemwin 0;
#X obj 132 136 gemwin;
#X obj 67 89 outlet;
#X obj 67 10 inlet;
#X msg 67 70 set destroy;
#X msg 132 112 create \, 1;
#X msg 198 112 destroy;
#X msg 156 71 set create;
#X obj 67 41 route create;
#X obj 254 145 vradio 15 1 0 3 empty empty empty 0 -8 0 10 -262144
-1 -1 0;
#X floatatom 254 196 5 0 0 0 - - -;
#X msg 254 217 reset \, fullscreen \$1 \, create \, 1;
#X text 276 142 deactivate fullscreen;
#X text 275 159 fullscreen on screen 1;
#X text 275 175 fullscreen on screen 2;
#X msg 267 272 0 \, destroy;
#N canvas 105 82 450 300 esc 0;
#X obj 65 20 gemkeyboard;
#X obj 65 167 outlet;
#X obj 89 71 keyname;
#X obj 128 96 sel Escape;
#X obj 65 41 sel 53;
#X obj 189 47 sel Escape;
#X obj 150 22 gemkeyname;
#X connect 0 0 4 0;
#X connect 2 1 3 0;
#X connect 3 0 1 0;
#X connect 4 0 1 0;
#X connect 5 0 1 0;
#X connect 6 1 5 0;
#X restore 267 250 pd esc;
#X msg 306 76 dimen 1600 1200;
#X connect 2 0 7 0;
#X connect 3 0 1 0;
#X connect 4 0 0 0;
#X connect 5 0 0 0;
#X connect 6 0 1 0;
#X connect 7 0 3 0;
#X connect 7 0 4 0;
#X connect 7 1 6 0;
#X connect 7 1 5 0;
#X connect 8 0 9 0;
#X connect 9 0 10 0;
#X connect 10 0 0 0;
#X connect 14 0 0 0;
#X connect 15 0 14 0;
#X connect 16 0 0 0;
#X restore 351 204 pd gemwin;
#X msg 351 185 create;
#X obj 11 16 cnv 15 100 60 empty empty vagaLume 0 12 0 20 -262144 -45076
0;
#X obj 48 37 cnv 15 100 20 empty empty v_0.6 0 12 0 20 -262144 -159808
0;
#X text 366 164 [:CriaJanela];
#X text 25 60 3ecologias.net;
#X obj 145 25 cnv 15 200 200 empty empty empty 20 12 0 14 -232576 -66577
0;
#X obj 173 40 tgl 15 0 empty empty empty 17 7 0 10 -262144 -1 -1 0
1;
#X obj 248 41 tgl 15 0 empty empty empty 17 7 0 10 -262144 -1 -1 0
1;
#X obj 176 109 tgl 15 0 empty empty empty 17 7 0 10 -262144 -1 -1 0
1;
#N canvas 461 150 1246 930 video1 0;
#X obj -388 -730 cnv 15 550 600 empty empty empty 20 12 0 14 -262130
-258113 0;
#X obj -60 -480 cnv 15 550 500 empty empty empty 20 12 0 14 -261682
-66577 0;
#X obj -604 -298 cnv 15 400 170 empty empty empty 20 12 0 14 -204786
-66577 0;
#X obj -290 -406 cnv 15 250 400 empty empty empty 20 12 0 14 -228992
-66577 0;
#X obj -288 -325 cnv 15 280 250 empty empty empty 20 12 0 14 -232576
-262144 0;
#X obj -288 -400 gemhead;
#X obj -285 -60 pix_texture;
#X floatatom -270 -147 5 0 0 3 length - -;
#X floatatom -222 -147 5 0 0 3 width - -;
#X floatatom -171 -147 5 0 0 3 height - -;
#X obj -224 -209 bng 15 250 50 0 empty empty end_reached 20 7 0 10
-262144 -1 -1;
#X floatatom -240 -235 5 0 10000 1 frameNum - -;
#X obj -263 -184 unpack 0 0 0 0;
#X floatatom -165 -183 5 0 0 3 fps - -;
#X obj -285 -208 pix_film;
#X floatatom -232 -371 5 0 0 0 - - -;
#X floatatom -179 -371 5 0 0 0 - - -;
#X floatatom -126 -372 5 0 0 0 - - -;
#X obj -285 -38 rectangle 4 2;
#X text -226 -390 x;
#X text -174 -390 y;
#X text -120 -390 z;
#X symbolatom 127 -278 15 0 0 0 - - -;
#X obj 127 -303 makefilename /Users/MAMBA/Desktop/sw/videos/video%d.mov
;
#X obj 126 -254 prepend set;
#X msg 126 -229 /Users/MAMBA/Desktop/sw/videos/video20.mov;
#X obj -270 -112 s \$0-length;
#X msg 68 -194 set open;
#X obj 128 -134 prepend set;
#X obj 127 -160 prepend typewriters;
#X msg 128 -106 open /Users/MAMBA/Desktop/sw/videos/video20.mov;
#X msg -288 -435 1;
#X msg 34 -321 2;
#X obj 128 -390 random 21;
#X msg -434 -249 stop;
#X obj -375 -675 sel 0 1;
#X msg -356 -618 1;
#X msg -472 -251 1;
#X obj 127 -364 i;
#X obj -287 -603 delay 40;
#X obj -217 -603 delay 40;
#X obj -287 -577 bng 15 250 50 0 empty empty empty 17 7 0 10 -262144
-1 -1;
#X obj -217 -575 bng 15 250 50 0 empty empty empty 17 7 0 10 -262144
-1 -1;
#X obj -157 -603 delay 40;
#X obj -157 -575 bng 15 250 50 0 empty empty empty 17 7 0 10 -262144
-1 -1;
#X obj -97 -603 delay 40;
#X obj -27 -603 delay 40;
#X obj -97 -577 bng 15 250 50 0 empty empty empty 17 7 0 10 -262144
-1 -1;
#X obj -27 -575 bng 15 250 50 0 empty empty empty 17 7 0 10 -262144
-1 -1;
#X obj 33 -603 delay 40;
#X obj 33 -575 bng 15 250 50 0 empty empty empty 17 7 0 10 -262144
-1 -1;
#X text -156 -631 carrega video \, audio e play!;
#X msg -375 -591 0;
#X text 357 -472 carrega video;
#X text -230 -387 comment;
#X text -234 -406 abre tela;
#X text -600 -293 carrega audio;
#X text -180 -311 comment;
#X text -49 -318 play!;
#X obj -375 -757 inlet;
#X text 196 -394 sorteia videos;
#X text 457 121 3ecologias.net salvador 2012;
#X text -575 -186 <------- trocar para numero da janela;
#X text -543 -168 (audioRandom7 - tocaAudio7);
#X text 137 -345 <------- trocar para numero da janela (audioRandom7)
;
#X obj 41 -345 s audioRandom1;
#X obj -570 -251 r audioRandom1;
#N canvas 224 144 1384 902 tocaAudio1 0;
#X floatatom 140 124 10 0 0 0 - - -;
#X obj 160 587 hsl 501 100 0 1 0 0 \$0-playpos-s \$0-playpos-r empty
-2 -6 0 8 -233017 -1 -355 0 1;
#N canvas 0 22 450 300 (subpatch) 0;
#X array \$0-x 1.27327e+06 float 2;
#X coords 0 1 1.27327e+06 -1 500 100 1;
#X restore 157 586 graph;
#X obj 120 560 dac~;
#X obj 228 99 loadbang;
#X obj 310 99 loadbang;
#X obj 409 348 gemhead;
#X obj 140 316 line~;
#X obj 252 471 snapshot~;
#X obj 409 370 t a b;
#X obj 252 530 s \$0-playpos-r;
#X obj 392 99 loadbang;
#X obj 140 267 pack f f;
#X obj 140 190 bng 15 250 50 0 empty empty PLAY 0 -6 0 8 -24198 -1
-1;
#X obj 140 209 t b b;
#X text 299 81 video frate;
#X text 389 81 av playspeed;
#X obj 185 190 bng 15 250 50 0 empty empty STOP 0 -6 0 8 -258699 -1
-1;
#X obj 141 406 +~;
#X obj 292 283 +~ 1;
#X obj 293 333 *~;
#X obj 306 190 tgl 15 0 empty empty SCRATCH 0 -6 0 8 -262144 -1 -1
0 1;
#X obj 362 190 bng 15 250 50 0 empty empty WHOLE_FILE 0 -6 0 8 -262144
-1 -1;
#X floatatom 362 232 10 0 0 0 - - -;
#X floatatom 337 232 3 0 0 0 - - -;
#X obj 292 305 *~ 10000;
#X obj 292 261 osc~ 1;
#X msg 392 121 1;
#X obj -177 -136 inlet;
#X obj 152 536 *~ 1;
#X obj 112 536 *~ 1;
#X msg 34 497 0;
#X msg 59 497 1;
#X obj 34 475 sel 0 1;
#X obj 409 329 tgl 15 0 empty empty empty 17 7 0 10 -262144 -1 -1 0
1;
#X floatatom 384 505 5 0 0 0 - - -;
#X obj 278 389 int;
#X floatatom 278 419 5 0 0 0 - - -;
#X obj 384 537 outlet;
#X msg 165 294 0;
#X obj 88 172 inlet;
#X msg 310 122 59.94;
#X msg 228 121 48000;
#X symbolatom -178 -9 80 0 0 0 - - -;
#X obj -178 -36 makefilename /Users/MAMBA/Desktop/sw/audios/audio%d.aiff
;
#X obj 133 14 pack s s;
#X obj 133 69 soundfiler;
#X msg 133 44 read -resize \$1 \$2;
#X obj 205 -79 i \$0;
#X obj 205 -40 makefilename %d-x;
#X obj 1062 -100 table \$0-x;
#X obj 140 508 tabread4~ \$0-x;
#X obj 234 172 inlet;
#X obj 140 143 value a_len;
#X obj 228 143 value a_sf;
#X obj 310 143 value v_fr;
#X obj 392 143 value a_ps;
#X obj 140 231 expr a_len \; a_len/a_sf/a_ps*1000;
#X obj 362 210 expr a_len/2;
#X obj 386 433 expr int($f1/a_sf*v_fr+0.5);
#X obj 252 508 expr $f1/a_len;
#X obj 474 310 r opencv;
#X obj 409 310 r mute;
#X obj 34 455 r mute;
#X obj -72 -119 > 0;
#X obj -72 -96 sel 1;
#X text 0 -57 <-- audio;
#X connect 0 0 53 0;
#X connect 4 0 42 0;
#X connect 5 0 41 0;
#X connect 6 0 9 0;
#X connect 7 0 18 0;
#X connect 8 0 59 0;
#X connect 8 0 60 0;
#X connect 9 1 8 0;
#X connect 11 0 27 0;
#X connect 12 0 7 0;
#X connect 13 0 14 0;
#X connect 14 0 57 0;
#X connect 14 1 39 0;
#X connect 17 0 36 0;
#X connect 18 0 8 0;
#X connect 18 0 51 0;
#X connect 19 0 25 0;
#X connect 20 0 18 1;
#X connect 21 0 20 1;
#X connect 22 0 58 0;
#X connect 23 0 25 1;
#X connect 24 0 26 0;
#X connect 25 0 20 0;
#X connect 26 0 19 0;
#X connect 27 0 56 0;
#X connect 28 0 44 0;
#X connect 28 0 64 0;
#X connect 29 0 3 1;
#X connect 30 0 3 0;
#X connect 31 0 30 1;
#X connect 31 0 29 1;
#X connect 32 0 30 1;
#X connect 32 0 29 1;
#X connect 33 0 31 0;
#X connect 33 1 32 0;
#X connect 34 0 6 0;
#X connect 35 0 36 1;
#X connect 35 0 38 0;
#X connect 36 0 37 0;
#X connect 37 0 7 0;
#X connect 39 0 7 0;
#X connect 40 0 13 0;
#X connect 41 0 55 0;
#X connect 42 0 54 0;
#X connect 43 0 45 0;
#X connect 44 0 43 0;
#X connect 45 0 47 0;
#X connect 46 0 0 0;
#X connect 47 0 46 0;
#X connect 48 0 49 0;
#X connect 49 0 45 1;
#X connect 51 0 29 0;
#X connect 51 0 30 0;
#X connect 52 0 17 0;
#X connect 57 0 12 0;
#X connect 57 1 12 1;
#X connect 58 0 23 0;
#X connect 59 0 35 0;
#X connect 60 0 10 0;
#X connect 61 0 34 0;
#X connect 62 0 34 0;
#X connect 63 0 33 0;
#X connect 64 0 65 0;
#X connect 65 0 48 0;
#X restore -509 -223 pd tocaAudio1;
#X obj -285 -346 translateXYZ -1.98 4.02 -1.98;
#X obj -95 -128 ==;
#X obj -95 -103 sel 1;
#X text 464 -305 <--- escolhe video;
#X text -417 -227 <--- escolhe audio;
#X connect 5 0 68 0;
#X connect 6 0 18 0;
#X connect 7 0 26 0;
#X connect 7 0 69 1;
#X connect 11 0 14 1;
#X connect 12 0 7 0;
#X connect 12 1 8 0;
#X connect 12 2 9 0;
#X connect 12 3 13 0;
#X connect 14 0 6 0;
#X connect 14 1 12 0;
#X connect 14 2 10 0;
#X connect 15 0 68 1;
#X connect 16 0 68 2;
#X connect 17 0 68 3;
#X connect 22 0 24 0;
#X connect 23 0 22 0;
#X connect 24 0 25 0;
#X connect 25 0 29 0;
#X connect 27 0 29 0;
#X connect 28 0 30 0;
#X connect 29 0 28 0;
#X connect 30 0 14 0;
#X connect 31 0 5 0;
#X connect 32 0 23 0;
#X connect 33 0 38 0;
#X connect 34 0 67 2;
#X connect 35 0 52 0;
#X connect 35 1 36 0;
#X connect 36 0 39 0;
#X connect 37 0 67 1;
#X connect 38 0 23 0;
#X connect 38 0 65 0;
#X connect 39 0 41 0;
#X connect 40 0 42 0;
#X connect 41 0 40 0;
#X connect 41 0 33 0;
#X connect 42 0 43 0;
#X connect 42 0 25 0;
#X connect 43 0 44 0;
#X connect 44 0 45 0;
#X connect 44 0 27 0;
#X connect 45 0 47 0;
#X connect 46 0 48 0;
#X connect 47 0 46 0;
#X connect 47 0 30 0;
#X connect 48 0 49 0;
#X connect 48 0 31 0;
#X connect 49 0 50 0;
#X connect 50 0 37 0;
#X connect 52 0 5 0;
#X connect 52 0 34 0;
#X connect 59 0 35 0;
#X connect 66 0 67 0;
#X connect 67 0 14 1;
#X connect 67 0 69 0;
#X connect 68 0 14 0;
#X connect 69 0 70 0;
#X connect 70 0 52 0;
#X restore 173 70 pd video1;
#N canvas 422 89 1246 930 video2 0;
#X obj -388 -730 cnv 15 550 600 empty empty empty 20 12 0 14 -262130
-258113 0;
#X obj -60 -480 cnv 15 550 500 empty empty empty 20 12 0 14 -261682
-66577 0;
#X obj -604 -298 cnv 15 400 170 empty empty empty 20 12 0 14 -204786
-66577 0;
#X obj -290 -406 cnv 15 250 400 empty empty empty 20 12 0 14 -228992
-66577 0;
#X obj -288 -325 cnv 15 280 250 empty empty empty 20 12 0 14 -232576
-262144 0;
#X obj -288 -400 gemhead;
#X obj -285 -60 pix_texture;
#X floatatom -270 -147 5 0 0 3 length - -;
#X floatatom -222 -147 5 0 0 3 width - -;
#X floatatom -171 -147 5 0 0 3 height - -;
#X obj -224 -209 bng 15 250 50 0 empty empty end_reached 20 7 0 10
-262144 -1 -1;
#X floatatom -240 -235 5 0 10000 1 frameNum - -;
#X obj -263 -184 unpack 0 0 0 0;
#X floatatom -165 -183 5 0 0 3 fps - -;
#X obj -285 -208 pix_film;
#X floatatom -232 -371 5 0 0 0 - - -;
#X floatatom -179 -371 5 0 0 0 - - -;
#X floatatom -126 -372 5 0 0 0 - - -;
#X obj -285 -38 rectangle 4 2;
#X text -226 -390 x;
#X text -174 -390 y;
#X text -120 -390 z;
#X symbolatom 127 -278 15 0 0 0 - - -;
#X obj 127 -303 makefilename /Users/MAMBA/Desktop/sw/videos/video%d.mov
;
#X obj 126 -254 prepend set;
#X msg 126 -229 /Users/MAMBA/Desktop/sw/videos/video20.mov;
#X obj -270 -112 s \$0-length;
#X msg 68 -194 set open;
#X obj 128 -134 prepend set;
#X obj 127 -160 prepend typewriters;
#X msg 128 -106 open /Users/MAMBA/Desktop/sw/videos/video20.mov;
#X msg -288 -435 1;
#X msg 34 -321 2;
#X obj 128 -390 random 21;
#X msg -434 -249 stop;
#X obj -375 -675 sel 0 1;
#X msg -356 -618 1;
#X msg -472 -251 1;
#X obj 127 -364 i;
#X obj -287 -603 delay 40;
#X obj -217 -603 delay 40;
#X obj -287 -577 bng 15 250 50 0 empty empty empty 17 7 0 10 -262144
-1 -1;
#X obj -217 -575 bng 15 250 50 0 empty empty empty 17 7 0 10 -262144
-1 -1;
#X obj -157 -603 delay 40;
#X obj -157 -575 bng 15 250 50 0 empty empty empty 17 7 0 10 -262144
-1 -1;
#X obj -97 -603 delay 40;
#X obj -27 -603 delay 40;
#X obj -97 -577 bng 15 250 50 0 empty empty empty 17 7 0 10 -262144
-1 -1;
#X obj -27 -575 bng 15 250 50 0 empty empty empty 17 7 0 10 -262144
-1 -1;
#X obj 33 -603 delay 40;
#X obj 33 -575 bng 15 250 50 0 empty empty empty 17 7 0 10 -262144
-1 -1;
#X text -156 -631 carrega video \, audio e play!;
#X msg -375 -591 0;
#X text 357 -472 carrega video;
#X text -234 -406 abre tela;
#X text -600 -293 carrega audio;
#X text -180 -311 comment;
#X text -49 -318 play!;
#X obj -375 -757 inlet;
#X text 189 -391 sorteia video;
#X text 150 -344 <------- trocar para numero da janela (audioRandom3)
;
#X text -585 -196 <------- trocar para numero da janela;
#X text -553 -178 (audioRandom3 - tocaAudio3);
#X obj 39 -343 s audioRandom2;
#X obj -566 -249 r audioRandom2;
#N canvas 253 178 1384 902 tocaAudio2 0;
#X floatatom 140 124 10 0 0 0 - - -;
#X obj 148 582 hsl 501 100 0 1 0 0 \$0-playpos-s \$0-playpos-r empty
-2 -6 0 8 -233017 -1 -355 0 1;
#N canvas 0 22 450 300 (subpatch) 0;
#X array \$0-y 1.27327e+06 float 2;
#X coords 0 1 1.27327e+06 -1 500 100 1;
#X restore 146 584 graph;
#X obj 120 560 dac~;
#X obj 228 99 loadbang;
#X obj 310 99 loadbang;
#X obj 409 348 gemhead;
#X obj 140 316 line~;
#X obj 252 471 snapshot~;
#X obj 409 370 t a b;
#X obj 252 530 s \$0-playpos-r;
#X obj 392 99 loadbang;
#X obj 140 267 pack f f;
#X obj 140 190 bng 15 250 50 0 empty empty PLAY 0 -6 0 8 -24198 -1
-1;
#X obj 140 209 t b b;
#X text 299 81 video frate;
#X text 389 81 av playspeed;
#X obj 185 190 bng 15 250 50 0 empty empty STOP 0 -6 0 8 -258699 -1
-1;
#X obj 141 406 +~;
#X obj 292 283 +~ 1;
#X obj 293 333 *~;
#X obj 306 190 tgl 15 0 empty empty SCRATCH 0 -6 0 8 -262144 -1 -1
0 1;
#X obj 362 190 bng 15 250 50 0 empty empty WHOLE_FILE 0 -6 0 8 -262144
-1 -1;
#X floatatom 362 232 10 0 0 0 - - -;
#X floatatom 337 232 3 0 0 0 - - -;
#X obj 292 305 *~ 10000;
#X obj 292 261 osc~ 1;
#X msg 392 121 1;
#X obj -177 -136 inlet;
#X obj 152 536 *~ 1;
#X obj 112 536 *~ 1;
#X msg 34 497 0;
#X msg 59 497 1;
#X obj 34 475 sel 0 1;
#X obj 409 329 tgl 15 0 empty empty empty 17 7 0 10 -262144 -1 -1 0
1;
#X floatatom 384 505 5 0 0 0 - - -;
#X obj 278 389 int;
#X floatatom 278 419 5 0 0 0 - - -;
#X obj 384 537 outlet;
#X msg 165 294 0;
#X obj 88 172 inlet;
#X msg 310 122 59.94;
#X msg 228 121 48000;
#X symbolatom -178 -9 80 0 0 0 - - -;
#X obj -178 -36 makefilename /Users/MAMBA/Desktop/sw/audios/audio%d.aiff
;
#X obj 133 14 pack s s;
#X obj 133 69 soundfiler;
#X msg 133 44 read -resize \$1 \$2;
#X obj 205 -79 i \$0;
#X obj 234 172 inlet;
#X obj 310 143 value v_fr;
#X obj 392 143 value a_ps;
#X obj 386 433 expr int($f1/a_sf*v_fr+0.5);
#X obj 474 310 r opencv;
#X obj 409 310 r mute;
#X obj 34 455 r mute;
#X obj -72 -119 > 0;
#X obj -72 -96 sel 1;
#X obj 228 143 value a_sf;
#X obj 205 -40 makefilename %d-y;
#X obj 1062 -100 table \$0-y;
#X obj 140 508 tabread4~ \$0-y;
#X obj 140 143 value b_len;
#X obj 140 231 expr b_len \; b_len/a_sf/a_ps*1000;
#X obj 362 210 expr b_len/2;
#X obj 252 508 expr $f1/b_len;
#X connect 0 0 62 0;
#X connect 4 0 42 0;
#X connect 5 0 41 0;
#X connect 6 0 9 0;
#X connect 7 0 18 0;
#X connect 8 0 52 0;
#X connect 8 0 65 0;
#X connect 9 1 8 0;
#X connect 11 0 27 0;
#X connect 12 0 7 0;
#X connect 13 0 14 0;
#X connect 14 0 63 0;
#X connect 14 1 39 0;
#X connect 17 0 36 0;
#X connect 18 0 8 0;
#X connect 18 0 61 0;
#X connect 19 0 25 0;
#X connect 20 0 18 1;
#X connect 21 0 20 1;
#X connect 22 0 64 0;
#X connect 23 0 25 1;
#X connect 24 0 26 0;
#X connect 25 0 20 0;
#X connect 26 0 19 0;
#X connect 27 0 51 0;
#X connect 28 0 44 0;
#X connect 28 0 56 0;
#X connect 29 0 3 1;
#X connect 30 0 3 0;
#X connect 31 0 30 1;
#X connect 31 0 29 1;
#X connect 32 0 30 1;
#X connect 32 0 29 1;
#X connect 33 0 31 0;
#X connect 33 1 32 0;
#X connect 34 0 6 0;
#X connect 35 0 36 1;
#X connect 35 0 38 0;
#X connect 36 0 37 0;
#X connect 37 0 7 0;
#X connect 39 0 7 0;
#X connect 40 0 13 0;
#X connect 41 0 50 0;
#X connect 42 0 58 0;
#X connect 43 0 45 0;
#X connect 44 0 43 0;
#X connect 45 0 47 0;
#X connect 46 0 0 0;
#X connect 47 0 46 0;
#X connect 48 0 59 0;
#X connect 49 0 17 0;
#X connect 52 0 35 0;
#X connect 53 0 34 0;
#X connect 54 0 34 0;
#X connect 55 0 33 0;
#X connect 56 0 57 0;
#X connect 57 0 48 0;
#X connect 59 0 45 1;
#X connect 61 0 29 0;
#X connect 61 0 30 0;
#X connect 63 0 12 0;
#X connect 63 1 12 1;
#X connect 64 0 23 0;
#X connect 65 0 10 0;
#X restore -509 -223 pd tocaAudio2;
#X obj -285 -346 translateXYZ 4.68 4 -2.09;
#X obj -85 -118 ==;
#X obj -85 -93 sel 1;
#X text 469 -302 <--- escolhe video;
#X text -422 -225 <--- escolhe audio;
#X connect 5 0 66 0;
#X connect 6 0 18 0;
#X connect 7 0 26 0;
#X connect 7 0 67 1;
#X connect 11 0 14 1;
#X connect 12 0 7 0;
#X connect 12 1 8 0;
#X connect 12 2 9 0;
#X connect 12 3 13 0;
#X connect 14 0 6 0;
#X connect 14 1 12 0;
#X connect 14 2 10 0;
#X connect 15 0 66 1;
#X connect 16 0 66 2;
#X connect 17 0 66 3;
#X connect 22 0 24 0;
#X connect 23 0 22 0;
#X connect 24 0 25 0;
#X connect 25 0 29 0;
#X connect 27 0 29 0;
#X connect 28 0 30 0;
#X connect 29 0 28 0;
#X connect 30 0 14 0;
#X connect 31 0 5 0;
#X connect 32 0 23 0;
#X connect 33 0 38 0;
#X connect 34 0 65 2;
#X connect 35 0 52 0;
#X connect 35 1 36 0;
#X connect 36 0 39 0;
#X connect 37 0 65 1;
#X connect 38 0 23 0;
#X connect 38 0 63 0;
#X connect 39 0 41 0;
#X connect 40 0 42 0;
#X connect 41 0 40 0;
#X connect 41 0 33 0;
#X connect 42 0 43 0;
#X connect 42 0 25 0;
#X connect 43 0 44 0;
#X connect 44 0 45 0;
#X connect 44 0 27 0;
#X connect 45 0 47 0;
#X connect 46 0 48 0;
#X connect 47 0 46 0;
#X connect 47 0 30 0;
#X connect 48 0 49 0;
#X connect 48 0 31 0;
#X connect 49 0 50 0;
#X connect 50 0 37 0;
#X connect 52 0 5 0;
#X connect 52 0 34 0;
#X connect 58 0 35 0;
#X connect 64 0 65 0;
#X connect 65 0 14 1;
#X connect 65 0 67 0;
#X connect 66 0 14 0;
#X connect 67 0 68 0;
#X connect 68 0 52 0;
#X restore 248 73 pd video2;
#N canvas 422 89 1246 930 video3 0;
#X obj -388 -730 cnv 15 550 600 empty empty empty 20 12 0 14 -262130
-258113 0;
#X obj -60 -480 cnv 15 550 500 empty empty empty 20 12 0 14 -261682
-66577 0;
#X obj -604 -298 cnv 15 400 170 empty empty empty 20 12 0 14 -204786
-66577 0;
#X obj -290 -406 cnv 15 250 400 empty empty empty 20 12 0 14 -228992
-66577 0;
#X obj -288 -325 cnv 15 280 250 empty empty empty 20 12 0 14 -232576
-262144 0;
#X obj -288 -400 gemhead;
#X obj -285 -60 pix_texture;
#X floatatom -270 -147 5 0 0 3 length - -;
#X floatatom -222 -147 5 0 0 3 width - -;
#X floatatom -171 -147 5 0 0 3 height - -;
#X obj -224 -209 bng 15 250 50 0 empty empty end_reached 20 7 0 10
-262144 -1 -1;
#X floatatom -240 -235 5 0 10000 1 frameNum - -;
#X obj -263 -184 unpack 0 0 0 0;
#X floatatom -165 -183 5 0 0 3 fps - -;
#X obj -285 -208 pix_film;
#X floatatom -232 -371 5 0 0 0 - - -;
#X floatatom -179 -371 5 0 0 0 - - -;
#X floatatom -126 -372 5 0 0 0 - - -;
#X obj -285 -38 rectangle 4 2;
#X text -226 -390 x;
#X text -174 -390 y;
#X text -120 -390 z;
#X symbolatom 127 -278 15 0 0 0 - - -;
#X obj 127 -303 makefilename /Users/MAMBA/Desktop/sw/videos/video%d.mov
;
#X obj 126 -254 prepend set;
#X msg 126 -229 /Users/MAMBA/Desktop/sw/videos/video7.mov;
#X obj -270 -112 s \$0-length;
#X msg 68 -194 set open;
#X obj 128 -134 prepend set;
#X obj 127 -160 prepend typewriters;
#X msg 128 -106 open /Users/MAMBA/Desktop/sw/videos/video7.mov;
#X msg -288 -435 1;
#X msg 34 -321 2;
#X obj 128 -390 random 21;
#X msg -434 -249 stop;
#X obj -375 -675 sel 0 1;
#X msg -356 -618 1;
#X msg -472 -251 1;
#X obj 127 -364 i;
#X obj -287 -603 delay 40;
#X obj -217 -603 delay 40;
#X obj -287 -577 bng 15 250 50 0 empty empty empty 17 7 0 10 -262144
-1 -1;
#X obj -217 -575 bng 15 250 50 0 empty empty empty 17 7 0 10 -262144
-1 -1;
#X obj -157 -603 delay 40;
#X obj -157 -575 bng 15 250 50 0 empty empty empty 17 7 0 10 -262144
-1 -1;
#X obj -97 -603 delay 40;
#X obj -27 -603 delay 40;
#X obj -97 -577 bng 15 250 50 0 empty empty empty 17 7 0 10 -262144
-1 -1;
#X obj -27 -575 bng 15 250 50 0 empty empty empty 17 7 0 10 -262144
-1 -1;
#X obj 33 -603 delay 40;
#X obj 33 -575 bng 15 250 50 0 empty empty empty 17 7 0 10 -262144
-1 -1;
#X text -156 -631 carrega video \, audio e play!;
#X msg -375 -591 0;
#X text 357 -472 carrega video;
#X text -234 -406 abre tela;
#X text -600 -293 carrega audio;
#X text -180 -311 comment;
#X text -49 -318 play!;
#X obj -375 -757 inlet;
#N canvas 253 178 1384 902 tocaAudio3 0;
#X floatatom 140 124 10 0 0 0 - - -;
#X obj 510 505 hsl 501 100 0 1 0 0 \$0-playpos-s \$0-playpos-r empty
-2 -6 0 8 -233017 -1 -355 0 1;
#N canvas 0 22 450 300 (subpatch) 0;
#X array \$0-z 523726 float 2;
#X coords 0 1 523726 -1 500 100 1;
#X restore 512 506 graph;
#X obj 120 560 dac~;
#X obj 228 99 loadbang;
#X obj 310 99 loadbang;
#X obj 409 348 gemhead;
#X obj 140 316 line~;
#X obj 252 471 snapshot~;
#X obj 409 370 t a b;
#X obj 252 530 s \$0-playpos-r;
#X obj 392 99 loadbang;
#X obj 140 267 pack f f;
#X obj 140 190 bng 15 250 50 0 empty empty PLAY 0 -6 0 8 -24198 -1
-1;
#X obj 140 209 t b b;
#X text 299 81 video frate;
#X text 389 81 av playspeed;
#X obj 185 190 bng 15 250 50 0 empty empty STOP 0 -6 0 8 -258699 -1
-1;
#X obj 141 406 +~;
#X obj 292 283 +~ 1;
#X obj 293 333 *~;
#X obj 306 190 tgl 15 0 empty empty SCRATCH 0 -6 0 8 -262144 -1 -1
0 1;
#X obj 362 190 bng 15 250 50 0 empty empty WHOLE_FILE 0 -6 0 8 -262144
-1 -1;
#X floatatom 362 232 10 0 0 0 - - -;
#X floatatom 337 232 3 0 0 0 - - -;
#X obj 292 305 *~ 10000;
#X obj 292 261 osc~ 1;
#X msg 392 121 1;
#X obj -177 -136 inlet;
#X obj 152 536 *~ 1;
#X obj 112 536 *~ 1;
#X msg 34 497 0;
#X msg 59 497 1;
#X obj 34 475 sel 0 1;
#X obj 409 329 tgl 15 0 empty empty empty 17 7 0 10 -262144 -1 -1 0
1;
#X floatatom 384 505 5 0 0 0 - - -;
#X obj 278 389 int;
#X floatatom 278 419 5 0 0 0 - - -;
#X obj 384 537 outlet;
#X msg 165 294 0;
#X obj 88 172 inlet;
#X msg 310 122 59.94;
#X msg 228 121 48000;
#X symbolatom -178 -9 80 0 0 0 - - -;
#X obj -178 -36 makefilename /Users/MAMBA/Desktop/sw/audios/audio%d.aiff
;
#X obj 133 14 pack s s;
#X obj 133 69 soundfiler;
#X msg 133 44 read -resize \$1 \$2;
#X obj 205 -79 i \$0;
#X obj 234 172 inlet;
#X obj 310 143 value v_fr;
#X obj 392 143 value a_ps;
#X obj 386 433 expr int($f1/a_sf*v_fr+0.5);
#X obj 474 310 r opencv;
#X obj 409 310 r mute;
#X obj 34 455 r mute;
#X obj -72 -119 > 0;
#X obj -72 -96 sel 1;
#X obj 228 143 value a_sf;
#X text 85 143 ----->;
#X text 91 243 ----->;
#X text 343 508 <---;
#X text 447 209 <---;
#X text 322 -41 <----- (z);
#X text 1131 -102 <----- (z);
#X text 173 487 <----- (z);
#X text 176 565 <----- (z);
#X obj 205 -40 makefilename %d-z;
#X obj 140 143 value c_len;
#X obj 1062 -100 table \$0-z;
#X obj 140 508 tabread4~ \$0-z;
#X obj 362 210 expr c_len/2;
#X obj 252 508 expr $f1/c_len;
#X obj 140 231 expr c_len \; c_len/a_sf/a_ps*1000;
#X connect 0 0 68 0;
#X connect 4 0 42 0;
#X connect 5 0 41 0;
#X connect 6 0 9 0;
#X connect 7 0 18 0;
#X connect 8 0 52 0;
#X connect 8 0 72 0;
#X connect 9 1 8 0;
#X connect 11 0 27 0;
#X connect 12 0 7 0;
#X connect 13 0 14 0;
#X connect 14 0 73 0;
#X connect 14 1 39 0;
#X connect 17 0 36 0;
#X connect 18 0 8 0;
#X connect 18 0 70 0;
#X connect 19 0 25 0;
#X connect 20 0 18 1;
#X connect 21 0 20 1;
#X connect 22 0 71 0;
#X connect 23 0 25 1;
#X connect 24 0 26 0;
#X connect 25 0 20 0;
#X connect 26 0 19 0;
#X connect 27 0 51 0;
#X connect 28 0 44 0;
#X connect 28 0 56 0;
#X connect 29 0 3 1;
#X connect 30 0 3 0;
#X connect 31 0 30 1;
#X connect 31 0 29 1;
#X connect 32 0 30 1;
#X connect 32 0 29 1;
#X connect 33 0 31 0;
#X connect 33 1 32 0;
#X connect 34 0 6 0;
#X connect 35 0 36 1;
#X connect 35 0 38 0;
#X connect 36 0 37 0;
#X connect 37 0 7 0;
#X connect 39 0 7 0;
#X connect 40 0 13 0;
#X connect 41 0 50 0;
#X connect 42 0 58 0;
#X connect 43 0 45 0;
#X connect 44 0 43 0;
#X connect 45 0 47 0;
#X connect 46 0 0 0;
#X connect 47 0 46 0;
#X connect 48 0 67 0;
#X connect 49 0 17 0;
#X connect 52 0 35 0;
#X connect 53 0 34 0;
#X connect 54 0 34 0;
#X connect 55 0 33 0;
#X connect 56 0 57 0;
#X connect 57 0 48 0;
#X connect 67 0 45 1;
#X connect 70 0 29 0;
#X connect 70 0 30 0;
#X connect 71 0 23 0;
#X connect 72 0 10 0;
#X connect 73 0 12 0;
#X connect 73 1 12 1;
#X restore -509 -223 pd tocaAudio3;
#X obj 39 -343 s audioRandom3;
#X obj -566 -249 r audioRandom3;
#X text 189 -391 sorteia video;
#X text 150 -344 <------- trocar para numero da janela (audioRandom3)
;
#X text -585 -196 <------- trocar para numero da janela;
#X text -553 -178 (audioRandom3 - tocaAudio3);
#X obj -285 -346 translateXYZ -4.44 0.02 -1.98;
#X obj -73 -127 ==;
#X obj -73 -102 sel 1;
#X text 467 -301 <--- escolhe video;
#X text -424 -224 <--- escolhe audio;
#X connect 5 0 66 0;
#X connect 6 0 18 0;
#X connect 7 0 26 0;
#X connect 7 0 67 1;
#X connect 11 0 14 1;
#X connect 12 0 7 0;
#X connect 12 1 8 0;
#X connect 12 2 9 0;
#X connect 12 3 13 0;
#X connect 14 0 6 0;
#X connect 14 1 12 0;
#X connect 14 2 10 0;
#X connect 15 0 66 1;
#X connect 16 0 66 2;
#X connect 17 0 66 3;
#X connect 22 0 24 0;
#X connect 23 0 22 0;
#X connect 24 0 25 0;
#X connect 25 0 29 0;
#X connect 27 0 29 0;
#X connect 28 0 30 0;
#X connect 29 0 28 0;
#X connect 30 0 14 0;
#X connect 31 0 5 0;
#X connect 32 0 23 0;
#X connect 33 0 38 0;
#X connect 34 0 59 2;
#X connect 35 0 52 0;
#X connect 35 1 36 0;
#X connect 36 0 39 0;
#X connect 37 0 59 1;
#X connect 38 0 23 0;
#X connect 38 0 60 0;
#X connect 39 0 41 0;
#X connect 40 0 42 0;
#X connect 41 0 40 0;
#X connect 41 0 33 0;
#X connect 42 0 43 0;
#X connect 42 0 25 0;
#X connect 43 0 44 0;
#X connect 44 0 45 0;
#X connect 44 0 27 0;
#X connect 45 0 47 0;
#X connect 46 0 48 0;
#X connect 47 0 46 0;
#X connect 47 0 30 0;
#X connect 48 0 49 0;
#X connect 48 0 31 0;
#X connect 49 0 50 0;
#X connect 50 0 37 0;
#X connect 52 0 5 0;
#X connect 52 0 34 0;
#X connect 58 0 35 0;
#X connect 59 0 14 1;
#X connect 59 0 67 0;
#X connect 61 0 59 0;
#X connect 66 0 14 0;
#X connect 67 0 68 0;
#X connect 68 0 52 0;
#X restore 176 139 pd video3;
#X obj 250 110 tgl 15 0 empty empty empty 17 7 0 10 -262144 -1 -1 0
1;
#X obj 177 171 tgl 15 0 empty empty empty 17 7 0 10 -262144 -1 -1 0
1;
#X obj 253 172 tgl 15 0 empty empty empty 17 7 0 10 -262144 -1 -1 0
1;
#N canvas 422 89 1246 930 video4 0;
#X obj -388 -730 cnv 15 550 600 empty empty empty 20 12 0 14 -262130
-258113 0;
#X obj -60 -480 cnv 15 550 500 empty empty empty 20 12 0 14 -261682
-66577 0;
#X obj -604 -298 cnv 15 400 170 empty empty empty 20 12 0 14 -204786
-66577 0;
#X obj -290 -406 cnv 15 250 400 empty empty empty 20 12 0 14 -228992
-66577 0;
#X obj -288 -325 cnv 15 280 250 empty empty empty 20 12 0 14 -232576
-262144 0;
#X obj -288 -400 gemhead;
#X obj -285 -60 pix_texture;
#X floatatom -270 -147 5 0 0 3 length - -;
#X floatatom -222 -147 5 0 0 3 width - -;
#X floatatom -171 -147 5 0 0 3 height - -;
#X obj -224 -209 bng 15 250 50 0 empty empty end_reached 20 7 0 10
-262144 -1 -1;
#X floatatom -240 -235 5 0 10000 1 frameNum - -;
#X obj -263 -184 unpack 0 0 0 0;
#X floatatom -165 -183 5 0 0 3 fps - -;
#X obj -285 -208 pix_film;
#X floatatom -232 -371 5 0 0 0 - - -;
#X floatatom -179 -371 5 0 0 0 - - -;
#X floatatom -126 -372 5 0 0 0 - - -;
#X obj -285 -38 rectangle 4 2;
#X text -226 -390 x;
#X text -174 -390 y;
#X text -120 -390 z;
#X symbolatom 127 -278 15 0 0 0 - - -;
#X obj 127 -303 makefilename /Users/MAMBA/Desktop/sw/videos/video%d.mov
;
#X obj 126 -254 prepend set;
#X msg 126 -229 /Users/MAMBA/Desktop/sw/videos/video11.mov;
#X obj -270 -112 s \$0-length;
#X msg 68 -194 set open;
#X obj 128 -134 prepend set;
#X obj 127 -160 prepend typewriters;
#X msg 128 -106 open /Users/MAMBA/Desktop/sw/videos/video11.mov;
#X msg -288 -435 1;
#X msg 34 -321 2;
#X obj 128 -390 random 21;
#X msg -434 -249 stop;
#X obj -375 -675 sel 0 1;
#X msg -356 -618 1;
#X msg -472 -251 1;
#X obj 127 -364 i;
#X obj -287 -603 delay 40;
#X obj -217 -603 delay 40;
#X obj -287 -577 bng 15 250 50 0 empty empty empty 17 7 0 10 -262144
-1 -1;
#X obj -217 -575 bng 15 250 50 0 empty empty empty 17 7 0 10 -262144
-1 -1;
#X obj -157 -603 delay 40;
#X obj -157 -575 bng 15 250 50 0 empty empty empty 17 7 0 10 -262144
-1 -1;
#X obj -97 -603 delay 40;
#X obj -27 -603 delay 40;
#X obj -97 -577 bng 15 250 50 0 empty empty empty 17 7 0 10 -262144
-1 -1;
#X obj -27 -575 bng 15 250 50 0 empty empty empty 17 7 0 10 -262144
-1 -1;
#X obj 33 -603 delay 40;
#X obj 33 -575 bng 15 250 50 0 empty empty empty 17 7 0 10 -262144
-1 -1;
#X text -156 -631 carrega video \, audio e play!;
#X msg -375 -591 0;
#X text 357 -472 carrega video;
#X text -234 -406 abre tela;
#X text -600 -293 carrega audio;
#X text -180 -311 comment;
#X text -49 -318 play!;
#X obj -375 -757 inlet;
#X text 189 -391 sorteia video;
#X text 150 -344 <------- trocar para numero da janela (audioRandom3)
;
#X text -585 -196 <------- trocar para numero da janela;
#X text -553 -178 (audioRandom3 - tocaAudio3);
#X obj -566 -249 r audioRandom4;
#N canvas 253 178 1384 902 tocaAudio4 0;
#X floatatom 140 124 10 0 0 0 - - -;
#X obj 168 625 hsl 501 100 0 1 0 0 \$0-playpos-s \$0-playpos-r empty
-2 -6 0 8 -233017 -1 -355 0 1;
#N canvas 0 22 450 300 (subpatch) 0;
#X array \$0-w 1.42222e+06 float 2;
#X coords 0 1 1.42222e+06 -1 500 100 1;
#X restore 164 626 graph;
#X obj 120 560 dac~;
#X obj 228 99 loadbang;
#X obj 310 99 loadbang;
#X obj 409 348 gemhead;
#X obj 140 316 line~;
#X obj 252 471 snapshot~;
#X obj 409 370 t a b;
#X obj 252 530 s \$0-playpos-r;
#X obj 392 99 loadbang;
#X obj 140 267 pack f f;
#X obj 140 190 bng 15 250 50 0 empty empty PLAY 0 -6 0 8 -24198 -1
-1;
#X obj 140 209 t b b;
#X text 299 81 video frate;
#X text 389 81 av playspeed;
#X obj 185 190 bng 15 250 50 0 empty empty STOP 0 -6 0 8 -258699 -1
-1;
#X obj 141 406 +~;
#X obj 292 283 +~ 1;
#X obj 293 333 *~;
#X obj 306 190 tgl 15 0 empty empty SCRATCH 0 -6 0 8 -262144 -1 -1
0 1;
#X obj 362 190 bng 15 250 50 0 empty empty WHOLE_FILE 0 -6 0 8 -262144
-1 -1;
#X floatatom 362 232 10 0 0 0 - - -;
#X floatatom 337 232 3 0 0 0 - - -;
#X obj 292 305 *~ 10000;
#X obj 292 261 osc~ 1;
#X msg 392 121 1;
#X obj -177 -136 inlet;
#X obj 152 536 *~ 1;
#X obj 112 536 *~ 1;
#X msg 34 497 0;
#X msg 59 497 1;
#X obj 34 475 sel 0 1;
#X obj 409 329 tgl 15 0 empty empty empty 17 7 0 10 -262144 -1 -1 0
1;
#X floatatom 384 505 5 0 0 0 - - -;
#X obj 278 389 int;
#X floatatom 278 419 5 0 0 0 - - -;
#X obj 384 537 outlet;
#X msg 165 294 0;
#X obj 88 172 inlet;
#X msg 310 122 59.94;
#X msg 228 121 48000;
#X symbolatom -178 -9 80 0 0 0 - - -;
#X obj -178 -36 makefilename /Users/MAMBA/Desktop/sw/audios/audio%d.aiff
;
#X obj 133 14 pack s s;
#X obj 133 69 soundfiler;
#X msg 133 44 read -resize \$1 \$2;
#X obj 205 -79 i \$0;
#X obj 234 172 inlet;
#X obj 310 143 value v_fr;
#X obj 392 143 value a_ps;
#X obj 386 433 expr int($f1/a_sf*v_fr+0.5);
#X obj 474 310 r opencv;
#X obj 409 310 r mute;
#X obj 34 455 r mute;
#X obj -72 -119 > 0;
#X obj -72 -96 sel 1;
#X obj 228 143 value a_sf;
#X text 85 143 ----->;
#X text 91 243 ----->;
#X text 343 508 <---;
#X text 447 209 <---;
#X text 322 -41 <----- (z);
#X text 1131 -102 <----- (z);
#X text 173 487 <----- (z);
#X text 176 565 <----- (z);
#X obj 205 -40 makefilename %d-w;
#X obj 1062 -100 table \$0-w;
#X obj 140 143 value d_len;
#X obj 140 508 tabread4~ \$0-w;
#X obj 252 508 expr $f1/d_len;
#X obj 362 210 expr d_len/2;
#X obj 140 231 expr d_len \; d_len/a_sf/a_ps*1000;
#X connect 0 0 69 0;
#X connect 4 0 42 0;
#X connect 5 0 41 0;
#X connect 6 0 9 0;
#X connect 7 0 18 0;
#X connect 8 0 52 0;
#X connect 8 0 71 0;
#X connect 9 1 8 0;
#X connect 11 0 27 0;
#X connect 12 0 7 0;
#X connect 13 0 14 0;
#X connect 14 0 73 0;
#X connect 14 1 39 0;
#X connect 17 0 36 0;
#X connect 18 0 8 0;
#X connect 18 0 70 0;
#X connect 19 0 25 0;
#X connect 20 0 18 1;
#X connect 21 0 20 1;
#X connect 22 0 72 0;
#X connect 23 0 25 1;
#X connect 24 0 26 0;
#X connect 25 0 20 0;
#X connect 26 0 19 0;
#X connect 27 0 51 0;
#X connect 28 0 44 0;
#X connect 28 0 56 0;
#X connect 29 0 3 1;
#X connect 30 0 3 0;
#X connect 31 0 30 1;
#X connect 31 0 29 1;
#X connect 32 0 30 1;
#X connect 32 0 29 1;
#X connect 33 0 31 0;
#X connect 33 1 32 0;
#X connect 34 0 6 0;
#X connect 35 0 36 1;
#X connect 35 0 38 0;
#X connect 36 0 37 0;
#X connect 37 0 7 0;
#X connect 39 0 7 0;
#X connect 40 0 13 0;
#X connect 41 0 50 0;
#X connect 42 0 58 0;
#X connect 43 0 45 0;
#X connect 44 0 43 0;
#X connect 45 0 47 0;
#X connect 46 0 0 0;
#X connect 47 0 46 0;
#X connect 48 0 67 0;
#X connect 49 0 17 0;
#X connect 52 0 35 0;
#X connect 53 0 34 0;
#X connect 54 0 34 0;
#X connect 55 0 33 0;
#X connect 56 0 57 0;
#X connect 57 0 48 0;
#X connect 67 0 45 1;
#X connect 70 0 29 0;
#X connect 70 0 30 0;
#X connect 71 0 10 0;
#X connect 72 0 23 0;
#X connect 73 0 12 0;
#X connect 73 1 12 1;
#X restore -509 -223 pd tocaAudio4;
#X obj 39 -343 s audioRandom4;
#X obj -285 -346 translateXYZ 2.01 0.02 -1.98;
#X obj -99 -128 ==;
#X obj -99 -103 sel 1;
#X text 467 -304 <--- escolhe video;
#X text -424 -227 <--- escolhe audio;
#X connect 5 0 66 0;
#X connect 6 0 18 0;
#X connect 7 0 26 0;
#X connect 7 0 67 1;
#X connect 11 0 14 1;
#X connect 12 0 7 0;
#X connect 12 1 8 0;
#X connect 12 2 9 0;
#X connect 12 3 13 0;
#X connect 14 0 6 0;
#X connect 14 1 12 0;
#X connect 14 2 10 0;
#X connect 15 0 66 1;
#X connect 16 0 66 2;
#X connect 17 0 66 3;
#X connect 22 0 24 0;
#X connect 23 0 22 0;
#X connect 24 0 25 0;
#X connect 25 0 29 0;
#X connect 27 0 29 0;
#X connect 28 0 30 0;
#X connect 29 0 28 0;
#X connect 30 0 14 0;
#X connect 31 0 5 0;
#X connect 32 0 23 0;
#X connect 33 0 38 0;
#X connect 34 0 64 2;
#X connect 35 0 52 0;
#X connect 35 1 36 0;
#X connect 36 0 39 0;
#X connect 37 0 64 1;
#X connect 38 0 23 0;
#X connect 38 0 65 0;
#X connect 39 0 41 0;
#X connect 40 0 42 0;
#X connect 41 0 40 0;
#X connect 41 0 33 0;
#X connect 42 0 43 0;
#X connect 42 0 25 0;
#X connect 43 0 44 0;
#X connect 44 0 45 0;
#X connect 44 0 27 0;
#X connect 45 0 47 0;
#X connect 46 0 48 0;
#X connect 47 0 46 0;
#X connect 47 0 30 0;
#X connect 48 0 49 0;
#X connect 48 0 31 0;
#X connect 49 0 50 0;
#X connect 50 0 37 0;
#X connect 52 0 5 0;
#X connect 52 0 34 0;
#X connect 58 0 35 0;
#X connect 63 0 64 0;
#X connect 64 0 14 1;
#X connect 64 0 67 0;
#X connect 66 0 14 0;
#X connect 67 0 68 0;
#X connect 68 0 52 0;
#X restore 250 139 pd video4;
#N canvas 422 89 1246 930 video5 0;
#X obj -388 -730 cnv 15 550 600 empty empty empty 20 12 0 14 -262130
-258113 0;
#X obj -60 -480 cnv 15 550 500 empty empty empty 20 12 0 14 -261682
-66577 0;
#X obj -604 -298 cnv 15 400 170 empty empty empty 20 12 0 14 -204786
-66577 0;
#X obj -290 -406 cnv 15 250 400 empty empty empty 20 12 0 14 -228992
-66577 0;
#X obj -288 -325 cnv 15 280 250 empty empty empty 20 12 0 14 -232576
-262144 0;
#X obj -288 -400 gemhead;
#X obj -285 -60 pix_texture;
#X floatatom -270 -147 5 0 0 3 length - -;
#X floatatom -222 -147 5 0 0 3 width - -;
#X floatatom -171 -147 5 0 0 3 height - -;
#X obj -224 -209 bng 15 250 50 0 empty empty end_reached 20 7 0 10
-262144 -1 -1;
#X floatatom -240 -235 5 0 10000 1 frameNum - -;
#X obj -263 -184 unpack 0 0 0 0;
#X floatatom -165 -183 5 0 0 3 fps - -;
#X obj -285 -208 pix_film;
#X floatatom -232 -371 5 0 0 0 - - -;
#X floatatom -179 -371 5 0 0 0 - - -;
#X floatatom -126 -372 5 0 0 0 - - -;
#X obj -285 -38 rectangle 4 2;
#X text -226 -390 x;
#X text -174 -390 y;
#X text -120 -390 z;
#X symbolatom 127 -278 15 0 0 0 - - -;
#X obj 127 -303 makefilename /Users/MAMBA/Desktop/sw/videos/video%d.mov
;
#X obj 126 -254 prepend set;
#X msg 126 -229 /Users/MAMBA/Desktop/sw/videos/video11.mov;
#X obj -270 -112 s \$0-length;
#X msg 68 -194 set open;
#X obj 128 -134 prepend set;
#X obj 127 -160 prepend typewriters;
#X msg 128 -106 open /Users/MAMBA/Desktop/sw/videos/video11.mov;
#X msg -288 -435 1;
#X msg 34 -321 2;
#X obj 128 -390 random 21;
#X msg -434 -249 stop;
#X obj -375 -675 sel 0 1;
#X msg -356 -618 1;
#X msg -472 -251 1;
#X obj 127 -364 i;
#X obj -287 -603 delay 40;
#X obj -217 -603 delay 40;
#X obj -287 -577 bng 15 250 50 0 empty empty empty 17 7 0 10 -262144
-1 -1;
#X obj -217 -575 bng 15 250 50 0 empty empty empty 17 7 0 10 -262144
-1 -1;
#X obj -157 -603 delay 40;
#X obj -157 -575 bng 15 250 50 0 empty empty empty 17 7 0 10 -262144
-1 -1;
#X obj -97 -603 delay 40;
#X obj -27 -603 delay 40;
#X obj -97 -577 bng 15 250 50 0 empty empty empty 17 7 0 10 -262144
-1 -1;
#X obj -27 -575 bng 15 250 50 0 empty empty empty 17 7 0 10 -262144
-1 -1;
#X obj 33 -603 delay 40;
#X obj 33 -575 bng 15 250 50 0 empty empty empty 17 7 0 10 -262144
-1 -1;
#X text -156 -631 carrega video \, audio e play!;
#X msg -375 -591 0;
#X text 357 -472 carrega video;
#X text -234 -406 abre tela;
#X text -600 -293 carrega audio;
#X text -180 -311 comment;
#X text -49 -318 play!;
#X obj -375 -757 inlet;
#X text 189 -391 sorteia video;
#X text 150 -344 <------- trocar para numero da janela (audioRandom3)
;
#X text -585 -196 <------- trocar para numero da janela;
#X text -553 -178 (audioRandom3 - tocaAudio3);
#X obj -566 -249 r audioRandom5;
#N canvas 253 178 1384 902 tocaAudio5 0;
#X floatatom 140 124 10 0 0 0 - - -;
#X obj 160 587 hsl 501 100 0 1 0 0 \$0-playpos-s \$0-playpos-r empty
-2 -6 0 8 -233017 -1 -355 0 1;
#N canvas 0 22 450 300 (subpatch) 0;
#X array \$0-t 1.42222e+06 float 2;
#X coords 0 1 1.42222e+06 -1 500 100 1;
#X restore 158 587 graph;
#X obj 120 560 dac~;
#X obj 228 99 loadbang;
#X obj 310 99 loadbang;
#X obj 409 348 gemhead;
#X obj 140 316 line~;
#X obj 252 471 snapshot~;
#X obj 409 370 t a b;
#X obj 252 530 s \$0-playpos-r;
#X obj 392 99 loadbang;
#X obj 140 267 pack f f;
#X obj 140 190 bng 15 250 50 0 empty empty PLAY 0 -6 0 8 -24198 -1
-1;
#X obj 140 209 t b b;
#X text 299 81 video frate;
#X text 389 81 av playspeed;
#X obj 185 190 bng 15 250 50 0 empty empty STOP 0 -6 0 8 -258699 -1
-1;
#X obj 141 406 +~;
#X obj 292 283 +~ 1;
#X obj 293 333 *~;
#X obj 306 190 tgl 15 0 empty empty SCRATCH 0 -6 0 8 -262144 -1 -1
0 1;
#X obj 362 190 bng 15 250 50 0 empty empty WHOLE_FILE 0 -6 0 8 -262144
-1 -1;
#X floatatom 362 232 10 0 0 0 - - -;
#X floatatom 337 232 3 0 0 0 - - -;
#X obj 292 305 *~ 10000;
#X obj 292 261 osc~ 1;
#X msg 392 121 1;
#X obj -177 -136 inlet;
#X obj 152 536 *~ 1;
#X obj 112 536 *~ 1;
#X msg 34 497 0;
#X msg 59 497 1;
#X obj 34 475 sel 0 1;
#X obj 409 329 tgl 15 0 empty empty empty 17 7 0 10 -262144 -1 -1 0
1;
#X floatatom 384 505 5 0 0 0 - - -;
#X obj 278 389 int;
#X floatatom 278 419 5 0 0 0 - - -;
#X obj 384 537 outlet;
#X msg 165 294 0;
#X obj 88 172 inlet;
#X msg 310 122 59.94;
#X msg 228 121 48000;
#X symbolatom -178 -9 80 0 0 0 - - -;
#X obj -178 -36 makefilename /Users/MAMBA/Desktop/sw/audios/audio%d.aiff
;
#X obj 133 14 pack s s;
#X obj 133 69 soundfiler;
#X msg 133 44 read -resize \$1 \$2;
#X obj 205 -79 i \$0;
#X obj 234 172 inlet;
#X obj 310 143 value v_fr;
#X obj 392 143 value a_ps;
#X obj 386 433 expr int($f1/a_sf*v_fr+0.5);
#X obj 474 310 r opencv;
#X obj 409 310 r mute;
#X obj 34 455 r mute;
#X obj -72 -119 > 0;
#X obj -72 -96 sel 1;
#X obj 228 143 value a_sf;
#X text 85 143 ----->;
#X text 91 243 ----->;
#X text 343 508 <---;
#X text 447 209 <---;
#X text 322 -41 <----- (z);
#X text 1131 -102 <----- (z);
#X text 173 487 <----- (z);
#X text 176 565 <----- (z);
#X obj 205 -40 makefilename %d-t;
#X obj 1062 -100 table \$0-t;
#X obj 140 143 value e_len;
#X obj 140 231 expr e_len \; e_len/a_sf/a_ps*1000;
#X obj 362 210 expr e_len/2;
#X obj 252 508 expr $f1/e_len;
#X obj 140 508 tabread4~ \$0-t;
#X connect 0 0 69 0;
#X connect 4 0 42 0;
#X connect 5 0 41 0;
#X connect 6 0 9 0;
#X connect 7 0 18 0;
#X connect 8 0 52 0;
#X connect 8 0 72 0;
#X connect 9 1 8 0;
#X connect 11 0 27 0;
#X connect 12 0 7 0;
#X connect 13 0 14 0;
#X connect 14 0 70 0;
#X connect 14 1 39 0;
#X connect 17 0 36 0;
#X connect 18 0 8 0;
#X connect 18 0 73 0;
#X connect 19 0 25 0;
#X connect 20 0 18 1;
#X connect 21 0 20 1;
#X connect 22 0 71 0;
#X connect 23 0 25 1;
#X connect 24 0 26 0;
#X connect 25 0 20 0;
#X connect 26 0 19 0;
#X connect 27 0 51 0;
#X connect 28 0 44 0;
#X connect 28 0 56 0;
#X connect 29 0 3 1;
#X connect 30 0 3 0;
#X connect 31 0 30 1;
#X connect 31 0 29 1;
#X connect 32 0 30 1;
#X connect 32 0 29 1;
#X connect 33 0 31 0;
#X connect 33 1 32 0;
#X connect 34 0 6 0;
#X connect 35 0 36 1;
#X connect 35 0 38 0;
#X connect 36 0 37 0;
#X connect 37 0 7 0;
#X connect 39 0 7 0;
#X connect 40 0 13 0;
#X connect 41 0 50 0;
#X connect 42 0 58 0;
#X connect 43 0 45 0;
#X connect 44 0 43 0;
#X connect 45 0 47 0;
#X connect 46 0 0 0;
#X connect 47 0 46 0;
#X connect 48 0 67 0;
#X connect 49 0 17 0;
#X connect 52 0 35 0;
#X connect 53 0 34 0;
#X connect 54 0 34 0;
#X connect 55 0 33 0;
#X connect 56 0 57 0;
#X connect 57 0 48 0;
#X connect 67 0 45 1;
#X connect 70 0 12 0;
#X connect 70 1 12 1;
#X connect 71 0 23 0;
#X connect 72 0 10 0;
#X connect 73 0 29 0;
#X connect 73 0 30 0;
#X restore -509 -223 pd tocaAudio5;
#X obj 39 -343 s audioRandom5;
#X obj -285 -346 translateXYZ -2.01 -4 -2.02;
#X obj -98 -138 ==;
#X obj -98 -113 sel 1;
#X text 471 -302 <--- escolhe video;
#X text -420 -225 <--- escolhe audio;
#X connect 5 0 66 0;
#X connect 6 0 18 0;
#X connect 7 0 26 0;
#X connect 7 0 67 1;
#X connect 11 0 14 1;
#X connect 12 0 7 0;
#X connect 12 1 8 0;
#X connect 12 2 9 0;
#X connect 12 3 13 0;
#X connect 14 0 6 0;
#X connect 14 1 12 0;
#X connect 14 2 10 0;
#X connect 15 0 66 1;
#X connect 16 0 66 2;
#X connect 17 0 66 3;
#X connect 22 0 24 0;
#X connect 23 0 22 0;
#X connect 24 0 25 0;
#X connect 25 0 29 0;
#X connect 27 0 29 0;
#X connect 28 0 30 0;
#X connect 29 0 28 0;
#X connect 30 0 14 0;
#X connect 31 0 5 0;
#X connect 32 0 23 0;
#X connect 33 0 38 0;
#X connect 34 0 64 2;
#X connect 35 0 52 0;
#X connect 35 1 36 0;
#X connect 36 0 39 0;
#X connect 37 0 64 1;
#X connect 38 0 23 0;
#X connect 38 0 65 0;
#X connect 39 0 41 0;
#X connect 40 0 42 0;
#X connect 41 0 40 0;
#X connect 41 0 33 0;
#X connect 42 0 43 0;
#X connect 42 0 25 0;
#X connect 43 0 44 0;
#X connect 44 0 45 0;
#X connect 44 0 27 0;
#X connect 45 0 47 0;
#X connect 46 0 48 0;
#X connect 47 0 46 0;
#X connect 47 0 30 0;
#X connect 48 0 49 0;
#X connect 48 0 31 0;
#X connect 49 0 50 0;
#X connect 50 0 37 0;
#X connect 52 0 5 0;
#X connect 52 0 34 0;
#X connect 58 0 35 0;
#X connect 63 0 64 0;
#X connect 64 0 14 1;
#X connect 64 0 67 0;
#X connect 66 0 14 0;
#X connect 67 0 68 0;
#X connect 68 0 52 0;
#X restore 177 202 pd video5;
#N canvas 422 89 1246 930 video6 0;
#X obj -388 -730 cnv 15 550 600 empty empty empty 20 12 0 14 -262130
-258113 0;
#X obj -60 -480 cnv 15 550 500 empty empty empty 20 12 0 14 -261682
-66577 0;
#X obj -604 -298 cnv 15 400 170 empty empty empty 20 12 0 14 -204786
-66577 0;
#X obj -290 -406 cnv 15 250 400 empty empty empty 20 12 0 14 -228992
-66577 0;
#X obj -288 -325 cnv 15 280 250 empty empty empty 20 12 0 14 -232576
-262144 0;
#X obj -288 -400 gemhead;
#X obj -285 -60 pix_texture;
#X floatatom -270 -147 5 0 0 3 length - -;
#X floatatom -222 -147 5 0 0 3 width - -;
#X floatatom -171 -147 5 0 0 3 height - -;
#X obj -224 -209 bng 15 250 50 0 empty empty end_reached 20 7 0 10
-262144 -1 -1;
#X floatatom -240 -235 5 0 10000 1 frameNum - -;
#X obj -263 -184 unpack 0 0 0 0;
#X floatatom -165 -183 5 0 0 3 fps - -;
#X obj -285 -208 pix_film;
#X floatatom -232 -371 5 0 0 0 - - -;
#X floatatom -179 -371 5 0 0 0 - - -;
#X floatatom -126 -372 5 0 0 0 - - -;
#X obj -285 -38 rectangle 4 2;
#X text -226 -390 x;
#X text -174 -390 y;
#X text -120 -390 z;
#X symbolatom 127 -278 15 0 0 0 - - -;
#X obj 127 -303 makefilename /Users/MAMBA/Desktop/sw/videos/video%d.mov
;
#X obj 126 -254 prepend set;
#X msg 126 -229 /Users/MAMBA/Desktop/sw/videos/video8.mov;
#X obj -270 -112 s \$0-length;
#X msg 68 -194 set open;
#X obj 128 -134 prepend set;
#X obj 127 -160 prepend typewriters;
#X msg 128 -106 open /Users/MAMBA/Desktop/sw/videos/video8.mov;
#X msg -288 -435 1;
#X msg 34 -321 2;
#X obj 128 -390 random 21;
#X msg -434 -249 stop;
#X obj -375 -675 sel 0 1;
#X msg -356 -618 1;
#X msg -472 -251 1;
#X obj 127 -364 i;
#X obj -287 -603 delay 40;
#X obj -217 -603 delay 40;
#X obj -287 -577 bng 15 250 50 0 empty empty empty 17 7 0 10 -262144
-1 -1;
#X obj -217 -575 bng 15 250 50 0 empty empty empty 17 7 0 10 -262144
-1 -1;
#X obj -157 -603 delay 40;
#X obj -157 -575 bng 15 250 50 0 empty empty empty 17 7 0 10 -262144
-1 -1;
#X obj -97 -603 delay 40;
#X obj -27 -603 delay 40;
#X obj -97 -577 bng 15 250 50 0 empty empty empty 17 7 0 10 -262144
-1 -1;
#X obj -27 -575 bng 15 250 50 0 empty empty empty 17 7 0 10 -262144
-1 -1;
#X obj 33 -603 delay 40;
#X obj 33 -575 bng 15 250 50 0 empty empty empty 17 7 0 10 -262144
-1 -1;
#X text -156 -631 carrega video \, audio e play!;
#X msg -375 -591 0;
#X text 357 -472 carrega video;
#X text -234 -406 abre tela;
#X text -600 -293 carrega audio;
#X text -180 -311 comment;
#X text -49 -318 play!;
#X obj -375 -757 inlet;
#X text 189 -391 sorteia video;
#X text 150 -344 <------- trocar para numero da janela (audioRandom3)
;
#X text -585 -196 <------- trocar para numero da janela;
#X text -553 -178 (audioRandom3 - tocaAudio3);
#X obj -566 -249 r audioRandom6;
#N canvas 253 178 1384 902 tocaAudio6 0;
#X floatatom 140 124 10 0 0 0 - - -;
#X obj 148 582 hsl 501 100 0 1 0 0 \$0-playpos-s \$0-playpos-r empty
-2 -6 0 8 -233017 -1 -355 0 1;
#N canvas 0 22 450 300 (subpatch) 0;
#X array \$0-v 333935 float 2;
#X coords 0 1 333935 -1 500 100 1;
#X restore 148 584 graph;
#X obj 120 560 dac~;
#X obj 228 99 loadbang;
#X obj 310 99 loadbang;
#X obj 409 348 gemhead;
#X obj 140 316 line~;
#X obj 252 471 snapshot~;
#X obj 409 370 t a b;
#X obj 252 530 s \$0-playpos-r;
#X obj 392 99 loadbang;
#X obj 140 267 pack f f;
#X obj 140 190 bng 15 250 50 0 empty empty PLAY 0 -6 0 8 -24198 -1
-1;
#X obj 140 209 t b b;
#X text 299 81 video frate;
#X text 389 81 av playspeed;
#X obj 185 190 bng 15 250 50 0 empty empty STOP 0 -6 0 8 -258699 -1
-1;
#X obj 141 406 +~;
#X obj 292 283 +~ 1;
#X obj 293 333 *~;
#X obj 306 190 tgl 15 0 empty empty SCRATCH 0 -6 0 8 -262144 -1 -1
0 1;
#X obj 362 190 bng 15 250 50 0 empty empty WHOLE_FILE 0 -6 0 8 -262144
-1 -1;
#X floatatom 362 232 10 0 0 0 - - -;
#X floatatom 337 232 3 0 0 0 - - -;
#X obj 292 305 *~ 10000;
#X obj 292 261 osc~ 1;
#X msg 392 121 1;
#X obj -177 -136 inlet;
#X obj 152 536 *~ 1;
#X obj 112 536 *~ 1;
#X msg 34 497 0;
#X msg 59 497 1;
#X obj 34 475 sel 0 1;
#X obj 409 329 tgl 15 0 empty empty empty 17 7 0 10 -262144 -1 -1 0
1;
#X floatatom 384 505 5 0 0 0 - - -;
#X obj 278 389 int;
#X floatatom 278 419 5 0 0 0 - - -;
#X obj 384 537 outlet;
#X msg 165 294 0;
#X obj 88 172 inlet;
#X msg 310 122 59.94;
#X msg 228 121 48000;
#X symbolatom -178 -9 80 0 0 0 - - -;
#X obj -178 -36 makefilename /Users/MAMBA/Desktop/sw/audios/audio%d.aiff
;
#X obj 133 14 pack s s;
#X obj 133 69 soundfiler;
#X msg 133 44 read -resize \$1 \$2;
#X obj 205 -79 i \$0;
#X obj 234 172 inlet;
#X obj 310 143 value v_fr;
#X obj 392 143 value a_ps;
#X obj 386 433 expr int($f1/a_sf*v_fr+0.5);
#X obj 474 310 r opencv;
#X obj 409 310 r mute;
#X obj 34 455 r mute;
#X obj -72 -119 > 0;
#X obj -72 -96 sel 1;
#X obj 228 143 value a_sf;
#X text 85 143 ----->;
#X text 91 243 ----->;
#X text 343 508 <---;
#X text 447 209 <---;
#X text 322 -41 <----- (z);
#X text 1131 -102 <----- (z);
#X text 173 487 <----- (z);
#X text 176 565 <----- (z);
#X obj 205 -40 makefilename %d-v;
#X obj 1062 -100 table \$0-v;
#X obj 140 143 value f_len;
#X obj 140 231 expr f_len \; f_len/a_sf/a_ps*1000;
#X obj 140 508 tabread4~ \$0-v;
#X obj 252 508 expr $f1/f_len;
#X obj 362 210 expr f_len/2;
#X connect 0 0 69 0;
#X connect 4 0 42 0;
#X connect 5 0 41 0;
#X connect 6 0 9 0;
#X connect 7 0 18 0;
#X connect 8 0 52 0;
#X connect 8 0 72 0;
#X connect 9 1 8 0;
#X connect 11 0 27 0;
#X connect 12 0 7 0;
#X connect 13 0 14 0;
#X connect 14 0 70 0;
#X connect 14 1 39 0;
#X connect 17 0 36 0;
#X connect 18 0 8 0;
#X connect 18 0 71 0;
#X connect 19 0 25 0;
#X connect 20 0 18 1;
#X connect 21 0 20 1;
#X connect 22 0 73 0;
#X connect 23 0 25 1;
#X connect 24 0 26 0;
#X connect 25 0 20 0;
#X connect 26 0 19 0;
#X connect 27 0 51 0;
#X connect 28 0 44 0;
#X connect 28 0 56 0;
#X connect 29 0 3 1;
#X connect 30 0 3 0;
#X connect 31 0 30 1;
#X connect 31 0 29 1;
#X connect 32 0 30 1;
#X connect 32 0 29 1;
#X connect 33 0 31 0;
#X connect 33 1 32 0;
#X connect 34 0 6 0;
#X connect 35 0 36 1;
#X connect 35 0 38 0;
#X connect 36 0 37 0;
#X connect 37 0 7 0;
#X connect 39 0 7 0;
#X connect 40 0 13 0;
#X connect 41 0 50 0;
#X connect 42 0 58 0;
#X connect 43 0 45 0;
#X connect 44 0 43 0;
#X connect 45 0 47 0;
#X connect 46 0 0 0;
#X connect 47 0 46 0;
#X connect 48 0 67 0;
#X connect 49 0 17 0;
#X connect 52 0 35 0;
#X connect 53 0 34 0;
#X connect 54 0 34 0;
#X connect 55 0 33 0;
#X connect 56 0 57 0;
#X connect 57 0 48 0;
#X connect 67 0 45 1;
#X connect 70 0 12 0;
#X connect 70 1 12 1;
#X connect 71 0 29 0;
#X connect 71 0 30 0;
#X connect 72 0 10 0;
#X connect 73 0 23 0;
#X restore -509 -223 pd tocaAudio6;
#X obj 39 -343 s audioRandom6;
#X obj -285 -346 translateXYZ 4.83 -4 -2.04;
#X obj -84 -126 ==;
#X obj -84 -101 sel 1;
#X text 465 -302 <--- escolhe video;
#X text -426 -225 <--- escolhe audio;
#X connect 5 0 66 0;
#X connect 6 0 18 0;
#X connect 7 0 26 0;
#X connect 7 0 67 1;
#X connect 11 0 14 1;
#X connect 12 0 7 0;
#X connect 12 1 8 0;
#X connect 12 2 9 0;
#X connect 12 3 13 0;
#X connect 14 0 6 0;
#X connect 14 1 12 0;
#X connect 14 2 10 0;
#X connect 15 0 66 1;
#X connect 16 0 66 2;
#X connect 17 0 66 3;
#X connect 22 0 24 0;
#X connect 23 0 22 0;
#X connect 24 0 25 0;
#X connect 25 0 29 0;
#X connect 27 0 29 0;
#X connect 28 0 30 0;
#X connect 29 0 28 0;
#X connect 30 0 14 0;
#X connect 31 0 5 0;
#X connect 32 0 23 0;
#X connect 33 0 38 0;
#X connect 34 0 64 2;
#X connect 35 0 52 0;
#X connect 35 1 36 0;
#X connect 36 0 39 0;
#X connect 37 0 64 1;
#X connect 38 0 23 0;
#X connect 38 0 65 0;
#X connect 39 0 41 0;
#X connect 40 0 42 0;
#X connect 41 0 40 0;
#X connect 41 0 33 0;
#X connect 42 0 43 0;
#X connect 42 0 25 0;
#X connect 43 0 44 0;
#X connect 44 0 45 0;
#X connect 44 0 27 0;
#X connect 45 0 47 0;
#X connect 46 0 48 0;
#X connect 47 0 46 0;
#X connect 47 0 30 0;
#X connect 48 0 49 0;
#X connect 48 0 31 0;
#X connect 49 0 50 0;
#X connect 50 0 37 0;
#X connect 52 0 5 0;
#X connect 52 0 34 0;
#X connect 58 0 35 0;
#X connect 63 0 64 0;
#X connect 64 0 14 1;
#X connect 64 0 67 0;
#X connect 66 0 14 0;
#X connect 67 0 68 0;
#X connect 68 0 52 0;
#X restore 253 202 pd video6;
#X text 335 255 v06. salvador 2012;
#X text 257 25 [:multiplayer];
#X connect 1 0 2 0;
#X connect 2 0 1 0;
#X connect 8 0 11 0;
#X connect 9 0 12 0;
#X connect 10 0 13 0;
#X connect 14 0 17 0;
#X connect 15 0 18 0;
#X connect 16 0 19 0;
